<?xml version="1.0" encoding="UTF-8"?>
<svg width="622px" height="414px" viewBox="0 0 622 414" version="1.1" xmlns="http://www.w3.org/2000/svg" xmlns:xlink="http://www.w3.org/1999/xlink">
    <!-- Generator: sketchtool 53.2 (72643) - https://sketchapp.com -->
    <title>6867AF0D-AE6D-4800-B414-E746455E318D</title>
    <desc>Created with sketchtool.</desc>
    <defs>
        <linearGradient x1="100%" y1="50%" x2="0%" y2="50%" id="linearGradient-1">
            <stop stop-color="#D9E5F6" stop-opacity="0.71263587" offset="0%"></stop>
            <stop stop-color="#B2C6EA" offset="100%"></stop>
        </linearGradient>
        <linearGradient x1="100%" y1="69.1409363%" x2="23.2289251%" y2="56.7983454%" id="linearGradient-2">
            <stop stop-color="#002964" offset="0%"></stop>
            <stop stop-color="#4270B4" offset="62.7469178%"></stop>
            <stop stop-color="#4F8DED" offset="100%"></stop>
        </linearGradient>
        <path d="M72.152757,1.74986958 C74.5137846,5.85633223 75.8361738,10.4572164 75.8361738,15.3157762 C75.8361738,32.6631927 58.9768184,46.7260721 38.1796173,46.7260721 C17.3824161,46.7260721 0.523060757,32.6631927 0.523060757,15.3157762 C0.523060757,10.1744064 2.00389539,5.321516 4.62935495,1.03778917 C21.3110988,3.6594281 54.5149192,3.49052633 72.152757,1.74986958 Z" id="path-3"></path>
        <linearGradient x1="77.5993706%" y1="47.0559414%" x2="40.2696226%" y2="55.6702893%" id="linearGradient-5">
            <stop stop-color="#032B67" offset="0%"></stop>
            <stop stop-color="#26529B" offset="100%"></stop>
        </linearGradient>
        <path d="M35.3030708,0.519195187 C54.222763,0.519195187 69.5601115,4.12205411 69.5601115,8.56644646 C69.5601115,13.0108388 54.222763,16.6136977 35.3030708,16.6136977 C16.3833785,16.6136977 1.04595938,13.0108388 1.04595938,8.56644646 C1.04595938,4.12205411 16.3833785,0.519195187 35.3030708,0.519195187 Z" id="path-6"></path>
        <linearGradient x1="46.1700711%" y1="5.04199562%" x2="56.9476125%" y2="100%" id="linearGradient-8">
            <stop stop-color="#B1FFBE" offset="0%"></stop>
            <stop stop-color="#5CDB8E" offset="44.420721%"></stop>
            <stop stop-color="#149654" offset="100%"></stop>
        </linearGradient>
        <path d="M33.4725077,95.5288274 C31.6016918,82.6772762 26.4552347,64.1189889 10.9831666,44.1301548 C1.86905492,32.3554247 1.83930881,3.68133536 0.523055526,0.519145346 C7.6747333,2.9604611 20.5220051,9.25345677 33.4725077,26.9972962 C47.0482973,45.5976868 38.4360143,83.5312201 33.4725077,95.5288274 Z" id="path-9"></path>
        <filter x="-32.5%" y="-16.0%" width="151.8%" height="131.5%" filterUnits="objectBoundingBox" id="filter-11">
            <feGaussianBlur stdDeviation="11" in="SourceAlpha" result="shadowBlurInner1"></feGaussianBlur>
            <feOffset dx="0" dy="-10" in="shadowBlurInner1" result="shadowOffsetInner1"></feOffset>
            <feComposite in="shadowOffsetInner1" in2="SourceAlpha" operator="arithmetic" k2="-1" k3="1" result="shadowInnerInner1"></feComposite>
            <feColorMatrix values="0 0 0 0 0.221483195   0 0 0 0 0.778539541   0 0 0 0 0.610041349  0 0 0 1 0" type="matrix" in="shadowInnerInner1"></feColorMatrix>
        </filter>
        <linearGradient x1="74.900117%" y1="-9.30161748%" x2="85.1383561%" y2="88.8160124%" id="linearGradient-12">
            <stop stop-color="#B1FFBE" offset="0%"></stop>
            <stop stop-color="#5CDB8E" offset="44.420721%"></stop>
            <stop stop-color="#149654" offset="100%"></stop>
        </linearGradient>
        <path d="M58.111686,62.5133918 C52.3319468,53.3365335 42.1201837,40.9001466 23.5448313,30.8164527 C12.6026518,24.8764476 2.86965744,3.01921758 0.794362502,1.0467533 C7.07834257,0.523376651 19.0128103,1.03788573 34.9038427,10.2505309 C51.5619926,19.9078214 57.836162,51.7085744 58.111686,62.5133918 Z" id="path-13"></path>
        <filter x="-25.7%" y="-23.8%" width="151.1%" height="147.8%" filterUnits="objectBoundingBox" id="filter-15">
            <feGaussianBlur stdDeviation="11" in="SourceAlpha" result="shadowBlurInner1"></feGaussianBlur>
            <feOffset dx="0" dy="-10" in="shadowBlurInner1" result="shadowOffsetInner1"></feOffset>
            <feComposite in="shadowOffsetInner1" in2="SourceAlpha" operator="arithmetic" k2="-1" k3="1" result="shadowInnerInner1"></feComposite>
            <feColorMatrix values="0 0 0 0 0.221483195   0 0 0 0 0.778539541   0 0 0 0 0.610041349  0 0 0 1 0" type="matrix" in="shadowInnerInner1"></feColorMatrix>
        </filter>
        <linearGradient x1="41.3952815%" y1="5.04199562%" x2="65.6092324%" y2="100%" id="linearGradient-16">
            <stop stop-color="#B1FFBE" offset="0%"></stop>
            <stop stop-color="#5CDB8E" offset="44.420721%"></stop>
            <stop stop-color="#149654" offset="100%"></stop>
        </linearGradient>
        <path d="M2.1166262,69.4819255 C6.67380076,59.6044077 15.2195257,45.9139024 32.4035542,33.495234 C42.5261214,26.1798236 49.363333,3.17006024 51.1725542,0.940315465 C44.8448365,1.22361564 33.0246294,3.26376937 18.4004971,14.4713681 C3.07042574,26.2200547 0.97839401,58.6879926 2.1166262,69.4819255 Z" id="path-17"></path>
        <filter x="-27.3%" y="-21.5%" width="157.0%" height="143.4%" filterUnits="objectBoundingBox" id="filter-19">
            <feGaussianBlur stdDeviation="11" in="SourceAlpha" result="shadowBlurInner1"></feGaussianBlur>
            <feOffset dx="0" dy="-10" in="shadowBlurInner1" result="shadowOffsetInner1"></feOffset>
            <feComposite in="shadowOffsetInner1" in2="SourceAlpha" operator="arithmetic" k2="-1" k3="1" result="shadowInnerInner1"></feComposite>
            <feColorMatrix values="0 0 0 0 0.221483195   0 0 0 0 0.778539541   0 0 0 0 0.610041349  0 0 0 1 0" type="matrix" in="shadowInnerInner1"></feColorMatrix>
        </filter>
        <radialGradient cx="86.3411852%" cy="11.3417143%" fx="86.3411852%" fy="11.3417143%" r="126.013099%" gradientTransform="translate(0.863412,0.113417),scale(1.000000,0.942466),rotate(118.580927),translate(-0.863412,-0.113417)" id="radialGradient-20">
            <stop stop-color="#EDF3FD" offset="0%"></stop>
            <stop stop-color="#DCE8FB" offset="40.8869518%"></stop>
            <stop stop-color="#AEBDD8" offset="100%"></stop>
        </radialGradient>
        <linearGradient x1="100%" y1="50%" x2="0%" y2="50%" id="linearGradient-21">
            <stop stop-color="#D9E5F6" stop-opacity="0.71263587" offset="0%"></stop>
            <stop stop-color="#B2C6EA" offset="100%"></stop>
        </linearGradient>
        <linearGradient x1="50%" y1="135.580501%" x2="50%" y2="10.3430509%" id="linearGradient-22">
            <stop stop-color="#FDE76B" offset="0%"></stop>
            <stop stop-color="#FAB539" offset="100%"></stop>
        </linearGradient>
        <linearGradient x1="50%" y1="135.580501%" x2="50%" y2="10.3430509%" id="linearGradient-23">
            <stop stop-color="#FDE76B" offset="0%"></stop>
            <stop stop-color="#FAB539" offset="100%"></stop>
        </linearGradient>
        <linearGradient x1="50%" y1="135.580501%" x2="50%" y2="10.3430509%" id="linearGradient-24">
            <stop stop-color="#FDE76B" offset="0%"></stop>
            <stop stop-color="#FAB539" offset="100%"></stop>
        </linearGradient>
        <linearGradient x1="100%" y1="50%" x2="0%" y2="50%" id="linearGradient-25">
            <stop stop-color="#D9E5F6" stop-opacity="0.71263587" offset="0%"></stop>
            <stop stop-color="#B2C6EA" offset="100%"></stop>
        </linearGradient>
        <linearGradient x1="100%" y1="50%" x2="0%" y2="50%" id="linearGradient-26">
            <stop stop-color="#D9E5F6" stop-opacity="0.71263587" offset="0%"></stop>
            <stop stop-color="#B2C6EA" offset="100%"></stop>
        </linearGradient>
        <linearGradient x1="100%" y1="50%" x2="0%" y2="50%" id="linearGradient-27">
            <stop stop-color="#D9E5F6" stop-opacity="0.71263587" offset="0%"></stop>
            <stop stop-color="#B2C6EA" offset="100%"></stop>
        </linearGradient>
        <linearGradient x1="100%" y1="50%" x2="0%" y2="50%" id="linearGradient-28">
            <stop stop-color="#D9E5F6" stop-opacity="0.71263587" offset="0%"></stop>
            <stop stop-color="#B2C6EA" offset="100%"></stop>
        </linearGradient>
        <linearGradient x1="100%" y1="50%" x2="0%" y2="50%" id="linearGradient-29">
            <stop stop-color="#D9E5F6" stop-opacity="0.71263587" offset="0%"></stop>
            <stop stop-color="#B2C6EA" offset="100%"></stop>
        </linearGradient>
        <linearGradient x1="92.2308441%" y1="50%" x2="71.8245784%" y2="60.7194279%" id="linearGradient-30">
            <stop stop-color="#9B4747" offset="0%"></stop>
            <stop stop-color="#522262" offset="100%"></stop>
        </linearGradient>
        <radialGradient cx="74.7331418%" cy="0%" fx="74.7331418%" fy="0%" r="43.8798443%" gradientTransform="translate(0.747331,0.000000),scale(1.000000,0.997052),rotate(89.999997),scale(1.000000,1.734640),translate(-0.747331,-0.000000)" id="radialGradient-31">
            <stop stop-color="#E36359" stop-opacity="0.5" offset="0%"></stop>
            <stop stop-color="#704840" stop-opacity="0" offset="100%"></stop>
        </radialGradient>
        <linearGradient x1="63.7939925%" y1="41.6867944%" x2="24.2854582%" y2="50%" id="linearGradient-32">
            <stop stop-color="#2D4063" stop-opacity="0" offset="0%"></stop>
            <stop stop-color="#120F3B" offset="100%"></stop>
        </linearGradient>
        <path d="M8.83264813,41.3418923 C8.83264813,41.3418923 55.2072552,15.4504057 66.8944887,10.7017831 C78.5818599,5.95316061 97.0341242,0.947153424 99.5770922,2.7798096 C102.119922,4.61246577 117.598936,17.9559665 122.548427,38.4556454 C127.497919,58.9550479 130.939905,118.633178 136.806056,123.132157 C129.772133,128.734766 78.3782957,137.298404 66.8944887,133.430169 C66.8944887,119.382109 64.7298442,84.2605766 66.8944887,77.449974 C62.5565168,79.5129217 34.2342124,93.9937806 22.5416038,97.0775585 C16.8121733,98.5885529 4.76439548,84.4672308 2.78043665,70.4551105 C0.715575844,55.87127 8.83264813,41.3418923 8.83264813,41.3418923 Z" id="path-33"></path>
        <linearGradient x1="65.9931362%" y1="100%" x2="65.9931362%" y2="17.906682%" id="linearGradient-34">
            <stop stop-color="#8DA6D5" offset="0%"></stop>
            <stop stop-color="#6A87BD" offset="100%"></stop>
        </linearGradient>
        <linearGradient x1="53.4242064%" y1="77.8636424%" x2="44.4346772%" y2="11.0351761%" id="linearGradient-35">
            <stop stop-color="#221616" offset="0%"></stop>
            <stop stop-color="#503889" offset="100%"></stop>
        </linearGradient>
        <linearGradient x1="19.8137375%" y1="32.7633451%" x2="64.5012842%" y2="78.5504952%" id="linearGradient-36">
            <stop stop-color="#FFCCB5" offset="0%"></stop>
            <stop stop-color="#DF1E1E" offset="100%"></stop>
        </linearGradient>
        <path d="M31.49982,4.98008772 C25.8710541,7.91368234 18.1525866,6.57744998 8.34434152,0.971361968 C5.95049204,6.39406804 4.39607686,10.1930464 3.6809821,12.3683544 C0.540336007,21.9228633 1.53133168,26.8819217 6.65381726,27.2455011 C13.5258267,27.7332477 21.8078276,27.9771067 31.49982,27.9771067 C37.1285478,9.71215652 37.1285478,2.04646441 31.49982,4.98008772 Z" id="path-37"></path>
        <linearGradient x1="53.1043649%" y1="17.003449%" x2="50%" y2="100%" id="linearGradient-39">
            <stop stop-color="#70B8F9" stop-opacity="0" offset="0%"></stop>
            <stop stop-color="#0042A6" offset="100%"></stop>
        </linearGradient>
        <linearGradient x1="12.1503067%" y1="35.8674955%" x2="31.569127%" y2="64.6151359%" id="linearGradient-40">
            <stop stop-color="#9B4747" offset="0%"></stop>
            <stop stop-color="#522262" offset="100%"></stop>
        </linearGradient>
        <linearGradient x1="7.11672641%" y1="34.170409%" x2="32.9688137%" y2="63.6103426%" id="linearGradient-41">
            <stop stop-color="#000000" offset="0%"></stop>
            <stop stop-color="#000000" stop-opacity="0" offset="100%"></stop>
        </linearGradient>
        <linearGradient x1="87.5130618%" y1="36.3678246%" x2="59.3030776%" y2="54.2849146%" id="linearGradient-42">
            <stop stop-color="#FF5E5B" stop-opacity="0.5" offset="0%"></stop>
            <stop stop-color="#282828" stop-opacity="0" offset="100%"></stop>
        </linearGradient>
        <linearGradient x1="50%" y1="80.9110144%" x2="50%" y2="100%" id="linearGradient-43">
            <stop stop-color="#3D3068" stop-opacity="0" offset="0%"></stop>
            <stop stop-color="#000000" offset="100%"></stop>
        </linearGradient>
        <path d="M18.6767355,10.1898619 C12.2351861,19.3760639 10.268194,34.9134028 14.6296826,45.613281 C18.5011503,55.1106878 33.6390525,65.5306294 37.0181404,66.9464385 C29.4024283,66.9464385 3.89404778,65.6811845 0.615559157,64.3877399 C3.587195,80.0080503 18.6767355,105.127368 3.587195,117.43288 C14.6296826,118.683239 109.706021,119.933597 119.597432,118.683239 C129.488842,117.43288 162.167569,122.409817 165.073318,105.127368 C167.979067,87.8449189 145.013639,64.1198675 137.734268,58.1572441 C130.455235,52.1946207 89.582646,26.5825214 82.6214184,18.9029786 C75.6600223,11.2235589 25.1179478,1.00365985 18.6767355,10.1898619 Z" id="path-44"></path>
        <linearGradient x1="31.0408502%" y1="50%" x2="65.9931362%" y2="45.4965452%" id="linearGradient-45">
            <stop stop-color="#8DA6D5" stop-opacity="0.393087636" offset="0%"></stop>
            <stop stop-color="#6A87BD" offset="100%"></stop>
        </linearGradient>
        <linearGradient x1="70.8732474%" y1="0%" x2="45.6698344%" y2="100%" id="linearGradient-46">
            <stop stop-color="#FFCCB5" offset="0%"></stop>
            <stop stop-color="#DF1E1E" offset="100%"></stop>
        </linearGradient>
        <path d="M27.624036,3.73625835 C32.079838,9.03411385 32.9120171,11.4496738 37.7267845,15.7518936 C42.5415519,20.0541134 49.1503234,21.5798359 51.0629249,22.2559772 C52.9757027,22.9321186 47.2376044,27.2189114 49.1503234,32.7730926 C51.0629249,38.3272739 55.1094546,46.5036823 55.1094546,48.6769742 C55.1094546,50.8501749 47.5430306,54.6841985 40.3859964,57.9188507 C33.2290209,61.1535942 32.2170065,63.8760513 33.0462471,69.3617695 C33.8755465,74.8476702 35.0512934,81.9298561 40.3859964,85.0302294 C43.9425042,87.0970841 33.8783675,83.4238118 10.1937037,74.0102299 C0.138617466,51.4024437 -2.37519817,32.9782993 2.65237433,18.7377966 C10.1937037,-2.62295742 23.1682341,-1.56159716 27.624036,3.73625835 Z" id="path-47"></path>
        <linearGradient x1="39.627475%" y1="100%" x2="39.6274745%" y2="23.1587377%" id="linearGradient-49">
            <stop stop-color="#FFCCB5" offset="0%"></stop>
            <stop stop-color="#AB0A0A" offset="100%"></stop>
        </linearGradient>
        <linearGradient x1="66.0362454%" y1="0%" x2="46.6732729%" y2="100%" id="linearGradient-50">
            <stop stop-color="#FFCCB5" offset="0%"></stop>
            <stop stop-color="#DF1E1E" offset="100%"></stop>
        </linearGradient>
        <linearGradient x1="-1.11022302e-14%" y1="50%" x2="100%" y2="50%" id="linearGradient-51">
            <stop stop-color="#C88888" offset="0%"></stop>
            <stop stop-color="#E6CCB7" offset="34.2675359%"></stop>
            <stop stop-color="#FFF9DF" offset="100%"></stop>
        </linearGradient>
        <linearGradient x1="88.3600935%" y1="24.4771045%" x2="50%" y2="63.95941%" id="linearGradient-52">
            <stop stop-color="#FFFBF1" offset="0%"></stop>
            <stop stop-color="#DEBEA7" offset="100%"></stop>
        </linearGradient>
        <linearGradient x1="53.7125685%" y1="50%" x2="20.4558248%" y2="90.998156%" id="linearGradient-53">
            <stop stop-color="#FFDE63" offset="0%"></stop>
            <stop stop-color="#FF671E" offset="100%"></stop>
        </linearGradient>
        <linearGradient x1="63.4503307%" y1="50%" x2="33.5925171%" y2="43.2760204%" id="linearGradient-54">
            <stop stop-color="#FFE289" stop-opacity="0" offset="0%"></stop>
            <stop stop-color="#FF7B57" offset="100%"></stop>
        </linearGradient>
        <path d="M0.898714746,136.50919 C4.48750953,129.350905 29.2109306,62.8041568 29.4607757,47.5563628 C29.7107311,32.30872 34.2602057,1.03438973 47.5173233,1.1381615 C60.7746613,1.24193327 88.2013934,13.8362862 92.6890132,17.2052382 C97.1765227,20.5740389 101.326973,35.1439886 101.326973,43.1984023 C101.326973,47.1748578 101.390261,71.1242021 101.326973,95.4570179 C101.266,118.88357 108.867312,142.65623 109.281332,143.621489 C88.3373418,150.589627 6.45175971,147.059269 0.898714746,136.50919 Z" id="path-55"></path>
        <linearGradient x1="64.5868931%" y1="44.1595538%" x2="41.1400042%" y2="86.2669142%" id="linearGradient-57">
            <stop stop-color="#A60707" stop-opacity="0.771314538" offset="0%"></stop>
            <stop stop-color="#CF710B" stop-opacity="0.663637908" offset="38.6970085%"></stop>
            <stop stop-color="#FEFFFF" stop-opacity="0" offset="100%"></stop>
        </linearGradient>
        <linearGradient x1="30.6293535%" y1="17.1298007%" x2="74.8694248%" y2="100%" id="linearGradient-58">
            <stop stop-color="#FFFCF1" offset="0%"></stop>
            <stop stop-color="#DEBBA7" offset="100%"></stop>
        </linearGradient>
        <linearGradient x1="15.3723617%" y1="36.7015425%" x2="25.8702546%" y2="74.7407486%" id="linearGradient-59">
            <stop stop-color="#FFDE62" offset="0%"></stop>
            <stop stop-color="#FF9770" offset="100%"></stop>
        </linearGradient>
        <linearGradient x1="47.8322148%" y1="57.6842103%" x2="67.4520815%" y2="77.4983438%" id="linearGradient-60">
            <stop stop-color="#FF8484" stop-opacity="0" offset="0%"></stop>
            <stop stop-color="#FF6200" offset="100%"></stop>
        </linearGradient>
        <path d="M8.78490216,61.8692877 C16.0295069,66.5695166 65.373851,80.2505025 70.85828,78.2317989 C76.3429388,76.2131761 110.565449,34.789488 112.48539,30.29535 C114.405331,25.8012119 90.2838893,0.919121379 87.401909,4.71648009 C84.5199287,8.51400051 60.6550306,38.2770233 57.9758027,38.2770233 C55.2966897,38.2770233 26.6592948,14.2081386 18.2779435,12.8457077 C9.89670704,11.4833576 3.70804685,21.7262086 2.11464759,27.0935444 C0.521018455,32.4608801 1.5401825,57.1689779 8.78490216,61.8692877 Z" id="path-61"></path>
        <radialGradient cx="29.9138069%" cy="13.3635848%" fx="29.9138069%" fy="13.3635848%" r="56.8853339%" gradientTransform="translate(0.299138,0.133636),scale(1.000000,0.551885),rotate(26.198123),scale(1.000000,1.641540),translate(-0.299138,-0.133636)" id="radialGradient-63">
            <stop stop-color="#3162AE" offset="0%"></stop>
            <stop stop-color="#223762" offset="100%"></stop>
        </radialGradient>
        <path d="M76.1993431,35.5754541 C86.1241488,32.3588287 77.4170806,18.6130342 80.9341733,18.6130342 C82.3928037,18.6130342 88.2760876,17.483855 89.8000481,14.2923035 C93.1778201,7.21804739 85.4387478,0.911189573 66.1875561,2.38219273 C33.2932984,4.89555446 31.5538616,39.108659 34.3339669,56.2285158 C37.1142606,73.3483727 0.678811489,125.33445 12.1630668,147.595824 C23.6473222,169.857199 46.6314593,161.332067 66.1875561,141.898246 C85.7435588,122.464424 80.5935908,56.5884204 75.4672509,53.4482107 C70.3408168,50.308001 66.2745374,38.7922501 76.1993431,35.5754541 Z" id="path-64"></path>
        <filter x="-13.4%" y="-11.9%" width="133.5%" height="119.4%" filterUnits="objectBoundingBox" id="filter-66">
            <feGaussianBlur stdDeviation="13.5" in="SourceAlpha" result="shadowBlurInner1"></feGaussianBlur>
            <feOffset dx="-18" dy="-15" in="shadowBlurInner1" result="shadowOffsetInner1"></feOffset>
            <feComposite in="shadowOffsetInner1" in2="SourceAlpha" operator="arithmetic" k2="-1" k3="1" result="shadowInnerInner1"></feComposite>
            <feColorMatrix values="0 0 0 0 0.0404334217   0 0 0 0 0.104773574   0 0 0 0 0.223875135  0 0 0 0.409561821 0" type="matrix" in="shadowInnerInner1"></feColorMatrix>
        </filter>
        <linearGradient x1="45.0422672%" y1="35.5856549%" x2="52.0953184%" y2="70.6376182%" id="linearGradient-67">
            <stop stop-color="#001630" stop-opacity="0.0615942029" offset="0%"></stop>
            <stop stop-color="#081E41" offset="100%"></stop>
        </linearGradient>
        <linearGradient x1="100%" y1="50%" x2="0%" y2="50%" id="linearGradient-68">
            <stop stop-color="#D6E1F1" stop-opacity="0.245895607" offset="0%"></stop>
            <stop stop-color="#6F8EC2" offset="100%"></stop>
        </linearGradient>
        <linearGradient x1="6.01635622%" y1="58.2988233%" x2="81.955643%" y2="56.9938545%" id="linearGradient-69">
            <stop stop-color="#002964" offset="0%"></stop>
            <stop stop-color="#4270B4" offset="50.0962171%"></stop>
            <stop stop-color="#4F8DED" offset="100%"></stop>
        </linearGradient>
        <linearGradient x1="0.537821449%" y1="100%" x2="89.5756356%" y2="0%" id="linearGradient-70">
            <stop stop-color="#FFDE62" offset="0%"></stop>
            <stop stop-color="#FF9770" offset="100%"></stop>
        </linearGradient>
        <linearGradient x1="40.6052245%" y1="50%" x2="142.273838%" y2="-38.6267018%" id="linearGradient-71">
            <stop stop-color="#FF8484" stop-opacity="0" offset="0%"></stop>
            <stop stop-color="#FF6200" offset="100%"></stop>
        </linearGradient>
        <path d="M31.8765038,19.61388 L31.8765038,46.9154723 C31.8765038,49.4309802 31.8765038,53.3719096 36.1299692,53.3719096 C38.9657,53.3719096 40.1164692,51.2197419 39.5821462,46.9154723 L39.5821462,34.4195812 C39.5821462,33.149304 40.8506077,31.810921 42.9770462,31.8921746 C45.1034192,31.9734282 46.3192462,33.4449329 46.2705346,34.4195812 C46.2217577,35.3941638 46.3680231,64.6819983 46.3192462,65.9714713 C46.2705346,67.2609443 46.4775423,70.2644995 48.6866923,70.2272911 C50.8957769,70.190017 51.5486423,68.934071 51.3979308,65.9714713 C51.24735,63.0089374 51.3979308,40.420249 51.3979308,38.7930741 C51.3979308,37.1658334 52.9792577,36.4778734 53.7330115,36.4925332 C54.4867,36.5071273 56.8479346,36.8735572 56.74175,39.6969214 C56.6355654,42.5202856 56.74175,58.5695739 56.74175,59.4415377 C56.74175,60.3133701 57.6262731,62.4220842 59.8038423,62.5135273 C61.9814115,62.6049047 63.0474423,60.633191 62.9464885,59.4415377 C62.8460577,58.2498845 63.1483962,33.7443746 63.0474423,31.8921746 C62.9464885,30.0400403 64.0731962,28.9901207 65.5210731,28.8521343 C66.96895,28.7140821 68.4011346,30.3672897 68.3613808,31.8921746 C68.3216269,33.4171252 68.4408885,45.0268529 68.4011346,45.9711297 C68.3613808,46.9154723 69.3986423,48.7152125 71.1933192,48.6384292 C72.9879962,48.5617117 73.53095,47.3809711 73.5058423,45.9711297 C73.4807346,44.5613541 73.45615,26.4018397 73.4807346,25.524288 C73.5058423,24.6467363 74.2454731,23.1146859 76.1343038,22.9841937 C78.0236577,22.8535701 79.2241192,24.564431 79.1875038,25.524288 C79.1508885,26.4842765 79.2607346,78.5371774 79.2241192,79.9131631 C79.1875038,81.2891489 80.5270385,83.8458094 83.7973808,83.7957819 C87.0671346,83.7457544 87.0932885,81.5155544 87.0671346,79.9131631 C87.0409808,78.3107061 87.0148269,28.5319847 87.0409808,26.245775 C87.0671346,23.9595652 87.74295,22.6147398 91.2355346,22.3454066 C94.7275962,22.0761391 95.6335654,21.9444637 95.5571962,20.8849461 C90.4849192,21.6631002 75.3162115,22.2529774 61.4232231,21.6631002 C47.5301692,21.0733544 36.9759808,20.8849461 31.8765038,19.61388 Z" id="path-72"></path>
        <linearGradient x1="77.5993706%" y1="48.4341589%" x2="40.2696226%" y2="53.0158273%" id="linearGradient-73">
            <stop stop-color="#032B67" offset="0%"></stop>
            <stop stop-color="#26529B" offset="100%"></stop>
        </linearGradient>
        <radialGradient cx="86.3411852%" cy="11.3417143%" fx="86.3411852%" fy="11.3417143%" r="120.920535%" gradientTransform="translate(0.863412,0.113417),scale(0.985075,1.000000),rotate(120.404472),translate(-0.863412,-0.113417)" id="radialGradient-74">
            <stop stop-color="#B2D0FF" offset="0%"></stop>
            <stop stop-color="#B8CBED" offset="40.8869518%"></stop>
            <stop stop-color="#7C98CA" offset="100%"></stop>
        </radialGradient>
        <path d="M33.5,0.523842 C51.423371,0.523842 65.953192,15.06384 65.953192,33 C65.953192,50.936094 51.423371,65.476158 33.5,65.476158 C15.576629,65.476158 1.046875,50.936094 1.046875,33 C1.046875,15.06384 15.576629,0.523842 33.5,0.523842 Z" id="path-75"></path>
    </defs>
    <g id="Page-1" stroke="none" stroke-width="1" fill="none" fill-rule="evenodd">
        <g id="rating-app-today" transform="translate(-1033.000000, 0.000000)">
            <g id="Artwork" transform="translate(1033.000000, -16.000000)">
                <g id="Plant" transform="translate(0.000000, 235.000000)">
                    <g id="Pot" transform="translate(20.920338, 92.932965)">
                        <path d="M31.9035184,39.976746 C49.2344815,39.976746 63.2840336,42.9985377 63.2840336,46.7260716 C63.2840336,50.4536055 49.2344815,53.4753972 31.9035184,53.4753972 C14.5725553,53.4753972 0.523003226,50.4536055 0.523003226,46.7260716 C0.523003226,42.9985377 14.5725553,39.976746 31.9035184,39.976746 Z" id="Ellipse-3" fill="url(#linearGradient-1)" style="mix-blend-mode: multiply;"></path>
                        <g id="Ellipse-2" transform="translate(1.569025, 5.710964)">
                            <mask id="mask-4" fill="white">
                                <use xlink:href="#path-3"></use>
                            </mask>
                            <use fill="url(#linearGradient-2)" xlink:href="#path-3"></use>
                        </g>
                        <g id="Ellipse-1" transform="translate(4.707076, 0.000000)">
                            <mask id="mask-7" fill="white">
                                <use xlink:href="#path-6"></use>
                            </mask>
                            <use fill="url(#linearGradient-5)" xlink:href="#path-6"></use>
                        </g>
                    </g>
                    <g id="leaves">
                        <g id="leaf" transform="translate(24.581397, 0.000000)">
                            <g id="Shape-2">
                                <mask id="mask-10" fill="white">
                                    <use xlink:href="#path-9"></use>
                                </mask>
                                <g>
                                    <use fill="url(#linearGradient-8)" fill-rule="evenodd" xlink:href="#path-9"></use>
                                    <use fill="black" fill-opacity="1" filter="url(#filter-11)" xlink:href="#path-9"></use>
                                </g>
                                <path d="" id="Shape-3" stroke="#489C71" stroke-width="3" fill-opacity="0" fill="#000000" opacity="0.5" style="mix-blend-mode: multiply;" mask="url(#mask-10)"></path>
                            </g>
                        </g>
                        <g id="leaf" transform="translate(0.000000, 46.206893)">
                            <g id="Shape-2">
                                <mask id="mask-14" fill="white">
                                    <use xlink:href="#path-13"></use>
                                </mask>
                                <g>
                                    <use fill="url(#linearGradient-12)" fill-rule="evenodd" xlink:href="#path-13"></use>
                                    <use fill="black" fill-opacity="1" filter="url(#filter-15)" xlink:href="#path-13"></use>
                                </g>
                                <path d="M29.6920001,21.456163 L24.066819,13.6920776 L22.041504,15.8342418 C24.7616974,17.5813596 27.3011701,19.4408724 29.6920001,21.456163 Z M51.0719582,50.9655808 C52.8438895,54.7168187 54.5803538,58.7908003 56.3153225,63.2334693 L58.927253,61.8077524 L51.0719582,50.9655808 Z" id="Shape-3" stroke="#489C71" stroke-width="3" fill-opacity="0" fill="#000000" opacity="0.5" style="mix-blend-mode: multiply;" mask="url(#mask-14)"></path>
                            </g>
                        </g>
                        <g id="leaf" transform="translate(60.145972, 40.495929)">
                            <g id="Shape-2">
                                <mask id="mask-18" fill="white">
                                    <use xlink:href="#path-17"></use>
                                </mask>
                                <g>
                                    <use fill="url(#linearGradient-16)" fill-rule="evenodd" xlink:href="#path-17"></use>
                                    <use fill="black" fill-opacity="1" filter="url(#filter-19)" xlink:href="#path-17"></use>
                                </g>
                                <path d="M23.3510421,24.7620388 C25.4559545,22.4681843 27.7270248,20.3080873 30.1899614,18.2354731 L27.90589,16.3721009 L23.3510421,24.7620388 Z M5.83894595,57.0189669 L-0.527011728,68.7449325 L2.24749636,69.8202476 C3.38659433,65.2078265 4.57466549,60.9570745 5.83894595,57.0189669 Z" id="Shape-3" stroke="#489C71" stroke-width="3" fill-opacity="0" fill="#000000" opacity="0.5" style="mix-blend-mode: multiply;" mask="url(#mask-18)"></path>
                            </g>
                        </g>
                    </g>
                </g>
                <g id="board" transform="translate(220.000000, 0.000000)">
                    <path d="M334.672784,364.479145 L8.887584,364.479145 C4.288992,364.479145 0.561064,360.749575 0.561064,356.148385 L0.561064,8.851615 C0.561064,4.250425 4.288992,0.520855 8.887584,0.520855 L334.672784,0.520855 C339.27172,0.520855 342.999648,4.250425 342.999648,8.851615 L342.999648,356.148385 C342.999648,360.734245 339.296832,364.454325 334.672784,364.479145 Z" id="" fill="url(#radialGradient-20)" style="mix-blend-mode: soft-light;"></path>
                    <g id="Group-2" transform="translate(55.164902, 54.671897)">
                        <path d="M103.084419,102.054242 L11.4898769,102.054242 C8.61565694,102.054242 6.28556384,99.7230288 6.28556384,96.8473401 L6.28556384,11.455085 C6.28556384,8.57939633 8.61565694,6.24818351 11.4898769,6.24818351 L103.084419,6.24818351 C105.958535,6.24818351 108.288629,8.57939633 108.288629,11.455085 L108.288629,96.8473401 C108.288629,99.7058868 105.986187,102.026446 103.084419,102.054242 Z" id="-copy-5" fill="url(#linearGradient-21)" style="mix-blend-mode: multiply;"></path>
                        <path d="M97.3597595,96.3267095 L5.76521726,96.3267095 C2.89099734,96.3267095 0.56090423,93.9954967 0.56090423,91.119808 L0.56090423,5.72755292 C0.56090423,2.85186424 2.89099734,0.520651412 5.76521726,0.520651412 L97.3597595,0.520651412 C100.233876,0.520651412 102.563969,2.85186424 102.563969,5.72755292 L102.563969,91.119808 C102.563969,93.9783547 100.261528,96.2989143 97.3597595,96.3267095 Z" id="" fill="#58A3FF"></path>
                        <g id="chart" transform="translate(5.724660, 19.786020)">
                            <path d="M2.41692526,52.7468425 C2.41692526,52.7468425 6.1407643,44.5283671 13.5882602,28.0914705 L31.6454369,31.6755227 L45.5348793,12.6785192 L68.5485834,3.4361527 L88.6528333,16.810365" id="" stroke="#D6E3FA" stroke-width="5" fill-opacity="0" fill="#000000" opacity="0.4"></path>
                            <path d="M31.4416541,35.0060382 C33.4315063,35.0060382 35.0445738,33.3921325 35.0445738,31.4012516 C35.0445738,29.4104572 33.4315063,27.7965515 31.4416541,27.7965515 C29.451802,27.7965515 27.8387345,29.4104572 27.8387345,31.4012516 C27.8387345,33.3921325 29.451802,35.0060382 31.4416541,35.0060382 Z" id="" fill="#FACA39"></path>
                            <path d="M13.747233,33.1235136 C15.7370851,33.1235136 17.3501526,31.5096086 17.3501526,29.5188236 C17.3501526,27.5279824 15.7370851,25.9140305 13.747233,25.9140305 C11.7573808,25.9140305 10.1443133,27.5279824 10.1443133,29.5188236 C10.1443133,31.5096086 11.7573808,33.1235136 13.747233,33.1235136 Z" id="" fill="#FACA39"></path>
                            <path d="M45.4930445,16.2613877 C47.4828873,16.2613877 49.0960204,14.647482 49.0960204,12.6566011 C49.0960204,10.6658067 47.4828873,9.05190099 45.4930445,9.05190099 C43.5032486,9.05190099 41.8901249,10.6658067 41.8901249,12.6566011 C41.8901249,14.647482 43.5032486,16.2613877 45.4930445,16.2613877 Z" id="" fill="#FACA39"></path>
                            <path d="M68.3917298,7.93043194 C70.3815819,7.93043194 71.9946494,6.31648293 71.9946494,4.32564532 C71.9946494,2.33485097 70.3815819,0.720945212 68.3917298,0.720945212 C66.4018776,0.720945212 64.7888101,2.33485097 64.7888101,4.32564532 C64.7888101,6.31648293 66.4018776,7.93043194 68.3917298,7.93043194 Z" id="" fill="#FACA39"></path>
                        </g>
                    </g>
                    <g id="Group" transform="translate(184.750378, 54.671897)">
                        <path d="M103.084419,102.054242 L11.4898769,102.054242 C8.61565694,102.054242 6.28556384,99.7230288 6.28556384,96.8473401 L6.28556384,11.455085 C6.28556384,8.57939633 8.61565694,6.24818351 11.4898769,6.24818351 L103.084419,6.24818351 C105.958639,6.24818351 108.288629,8.57939633 108.288629,11.455085 L108.288629,96.8473401 C108.288629,99.7058868 105.986187,102.026446 103.084419,102.054242 Z" id="-copy-6" fill="url(#linearGradient-21)" style="mix-blend-mode: multiply;"></path>
                        <path d="M97.3597595,96.3267095 L5.76521726,96.3267095 C2.89099734,96.3267095 0.56090423,93.9954967 0.56090423,91.119808 L0.56090423,5.72755292 C0.56090423,2.85186424 2.89099734,0.520651412 5.76521726,0.520651412 L97.3597595,0.520651412 C100.233876,0.520651412 102.563969,2.85186424 102.563969,5.72755292 L102.563969,91.119808 C102.563969,93.9783547 100.261528,96.2989143 97.3597595,96.3267095 Z" id="" fill="#58A3FF"></path>
                        <g id="bar-graph" transform="translate(17.694402, 30.199715)">
                            <path d="M14.0919387,53.1098327 L2.12218128,53.1098327 C0.972570747,53.1098327 0.0405389168,52.1773488 0.0405389168,51.0270521 L0.0405389168,2.08274676 C0.0405389168,0.932504708 0.972570747,-3.38437996e-05 2.12218128,-3.38437996e-05 L14.0919387,-3.38437996e-05 C15.2416189,-3.38437996e-05 16.1736508,0.932504708 16.1736508,2.08274676 L16.1736508,51.0270521 C16.1736508,52.1611659 15.2677005,53.0835355 14.0919387,53.1098327 Z" id="" fill="url(#linearGradient-22)"></path>
                            <path d="M40.1131187,53.1098327 L28.1433613,53.1098327 C26.9937508,53.1098327 26.0617189,52.3967571 26.0617189,51.5171188 L26.0617189,14.0891371 C26.0617189,13.2095407 26.9937508,12.4964233 28.1433613,12.4964233 L40.1131187,12.4964233 C41.262799,12.4964233 42.1948308,13.2095407 42.1948308,14.0891371 L42.1948308,51.5171188 C42.1948308,52.3843819 41.2888805,53.0897231 40.1131187,53.1098327 Z" id="-copy-9" fill="url(#linearGradient-23)"></path>
                            <path d="M65.6138751,53.1098327 L53.6441177,53.1098327 C52.4945072,53.1098327 51.5624754,52.570455 51.5624754,51.9050876 L51.5624754,23.5941783 C51.5624754,22.9288426 52.4945072,22.3894332 53.6441177,22.3894332 L65.6138751,22.3894332 C66.7635554,22.3894332 67.6955872,22.9288426 67.6955872,23.5941783 L67.6955872,51.9050876 C67.6955872,52.5610943 66.7896369,53.0946216 65.6138751,53.1098327 Z" id="-copy-10" fill="url(#linearGradient-24)"></path>
                        </g>
                    </g>
                    <g id="list" transform="translate(55.164902, 175.991441)">
                        <path d="M55.205427,60.9200881 L5.76516938,60.9200881 C2.89099786,60.9200881 0.560980212,58.5889013 0.560980212,55.7132876 L0.560980212,6.2481606 C0.560980212,3.37254689 2.89099786,1.0413601 5.76516938,1.0413601 L55.205427,1.0413601 C58.0795986,1.0413601 60.4096776,3.37254689 60.4096776,6.2481606 L60.4096776,55.7132876 C60.4096776,58.5718208 58.1072331,60.8923783 55.205427,60.9200881 Z" id="" fill="url(#linearGradient-25)" style="mix-blend-mode: multiply;"></path>
                        <path d="M55.205427,133.815978 L5.76516938,133.815978 C2.89099786,133.815978 0.560980212,131.484748 0.560980212,128.609136 L0.560980212,79.1440742 C0.560980212,76.2684011 2.89099786,73.937232 5.76516938,73.937232 L55.205427,73.937232 C58.0795986,73.937232 60.4096776,76.2684011 60.4096776,79.1440742 L60.4096776,128.609136 C60.4096776,131.46769 58.1072331,133.788259 55.205427,133.815978 Z" id="" fill="url(#linearGradient-26)" style="mix-blend-mode: multiply;"></path>
                        <path d="M230.588124,17.7032815 L72.3793507,17.7032815 C71.5171602,17.7032815 70.8181882,17.0039327 70.8181882,16.1411945 L70.8181882,3.64479055 C70.8181882,2.78205239 71.5171602,2.08270354 72.3793507,2.08270354 L230.588124,2.08270354 C231.450478,2.08270354 232.14945,2.78205239 232.14945,3.64479055 L232.14945,16.1411945 C232.14945,16.9877467 231.476378,17.676975 230.588124,17.7032815 Z" id="" fill="url(#linearGradient-27)" style="mix-blend-mode: multiply;"></path>
                        <path d="M230.588124,90.5991108 L72.3793507,90.5991108 C71.5171602,90.5991108 70.8181882,89.899827 70.8181882,89.0370565 L70.8181882,76.5406229 C70.8181882,75.6779191 71.5171602,74.978602 72.3793507,74.978602 L230.588124,74.978602 C231.450478,74.978602 232.14945,75.6779191 232.14945,76.5406229 L232.14945,89.0370565 C232.14945,89.883615 231.476378,90.5728349 230.588124,90.5991108 Z" id="" fill="url(#linearGradient-28)" style="mix-blend-mode: multiply;"></path>
                        <path d="M194.158488,43.7374845 L72.3794871,43.7374845 C71.5171363,43.7374845 70.8181757,43.0381674 70.8181757,42.1754636 L70.8181757,29.6789966 C70.8181757,28.8162928 71.5171363,28.1169757 72.3794871,28.1169757 L194.158488,28.1169757 C195.020839,28.1169757 195.719799,28.8162928 195.719799,29.6789966 L195.719799,42.1754636 C195.719799,43.0219887 195.046763,43.7112087 194.158488,43.7374845 Z" id="" fill="url(#linearGradient-29)" style="mix-blend-mode: multiply;"></path>
                        <path d="M194.158488,116.633381 L72.3794871,116.633381 C71.5171363,116.633381 70.8181757,115.93403 70.8181757,115.071327 L70.8181757,102.574893 C70.8181757,101.712156 71.5171363,101.012839 72.3794871,101.012839 L194.158488,101.012839 C195.020839,101.012839 195.719799,101.712156 195.719799,102.574893 L195.719799,115.071327 C195.719799,115.917818 195.046763,116.607038 194.158488,116.633381 Z" id="" fill="url(#linearGradient-29)" style="mix-blend-mode: multiply;"></path>
                    </g>
                </g>
                <g id="person" transform="translate(49.000000, 83.000000)">
                    <g id="bottom" transform="translate(0.000000, 178.395219)">
                        <g id="shoe" transform="translate(200.233087, 114.235535)">
                            <path d="M22.5791452,36.4076647 L7.46437952,36.4076647 C5.36325,32.0176692 3.96983783,28.2549792 3.28407331,25.1195945 C2.25549623,20.4165175 0.708065803,16.9181304 2.25549623,10.5691479 C3.80285696,4.22024145 21.606391,0.621898253 23.852688,2.65536693 C26.0988455,4.68879753 25.7333135,5.77719563 34.6318748,10.5170565 C40.0075995,13.3805225 49.9578057,17.9957904 64.4822843,24.3628983 C67.3119689,25.6033439 69.140744,28.4066839 69.140744,31.503952 C69.140744,34.3399253 66.875491,36.6531187 64.0483849,36.704182 C48.2403977,36.989847 38.4003738,37.1326414 34.5280344,37.1326414 C30.3287721,35.6060358 26.3457626,33.7251477 22.5791452,31.489863 L22.5791452,36.4076647 Z" id="" fill="url(#linearGradient-30)"></path>
                            <path d="M43.0662661,19.6243718 C43.4862127,19.1762238 44.9700079,18.2213981 46.3049622,17.6688046 C47.778245,17.058951 48.805566,17.003526 49.1137657,17.2796439 L49.9108422,13.8636014 L41.0693994,16.3303972 L41.6068794,18.2568228 L43.0662661,19.6243718 Z" id="Shape-9-copy-3" stroke="#D2DDF1" stroke-width="4" fill-opacity="0" fill="#000000"></path>
                        </g>
                        <g id="leg" transform="translate(124.820626, 0.000000)">
                            <g id="">
                                <use fill="#353458" xlink:href="#path-33"></use>
                                <use fill-opacity="0.720000029" fill="url(#radialGradient-31)" xlink:href="#path-33"></use>
                                <use fill="url(#linearGradient-32)" xlink:href="#path-33"></use>
                            </g>
                            <path d="M69.0318702,75.4544273 C71.8937981,73.285504 80.3999909,65.8163752 82.5747781,64.7818165 C78.8649895,72.1987803 75.42071,87.0894892 75.42071,93.9308843 C71.9920091,91.6990245 68.9084081,89.4185697 66.16996,87.0894892 C66.16996,80.778761 67.1239537,76.900366 69.0318702,75.4544273 Z" id="" fill="url(#linearGradient-34)" style="mix-blend-mode: multiply;"></path>
                        </g>
                        <path d="M65.2489362,101.362375 C62.7385089,103.353886 60.2921984,153.283468 65.2489362,154.305487 C70.2056007,155.327506 83.1760235,143.83488 79.9080999,122.546764 C76.6402007,101.258647 67.7747388,103.771949 65.2489362,101.362375 Z" id="inside-pants" fill="url(#linearGradient-35)"></path>
                        <g id="ankle" transform="translate(49.928250, 126.754498)">
                            <mask id="mask-38" fill="white">
                                <use xlink:href="#path-37"></use>
                            </mask>
                            <use id="" fill="url(#linearGradient-36)" xlink:href="#path-37"></use>
                            <path d="M17.5199332,28.6863694 C19.5317221,23.4518207 17.2837425,6.28155341 13.0121643,1.4824623 C10.1644455,-1.71693178 15.3712925,-0.688555109 28.6327053,4.5675923 C27.8111388,12.7414575 26.8770277,17.9883151 25.8303722,20.3081652 C21.2097925,30.5494068 16.5188792,31.291049 17.5199332,28.6863694 Z" id="Path-4" fill="url(#linearGradient-39)" style="mix-blend-mode: multiply;" opacity="0.600000024" mask="url(#mask-38)"></path>
                        </g>
                        <g id="shoe" transform="translate(0.000000, 117.886899)">
                            <path d="M51.5000962,5.52065131 C55.6311185,7.97368885 58.031805,9.48552261 63.332523,11.9754833 C65.3230334,12.9104385 59.5985327,15.3293416 53.853226,23.3127389 C48.8811113,30.2216993 55.8677789,35.7542796 53.853226,35.9285671 C50.8384641,36.189456 50.2941386,35.179002 40.7690683,38.4736284 C35.0492572,40.4520361 25.2794023,44.224494 11.4595034,49.7907957 L11.4595034,49.7907957 C8.57935328,50.9508529 5.29014984,50.3358636 3.02024411,48.2128619 C0.952982594,46.27933 0.812888604,43.0406305 2.70551151,40.9348768 C12.5663846,29.9635474 18.8085263,23.0672389 21.4318044,20.2456931 C25.4089281,18.206556 29.4968853,16.5677893 33.6956759,15.3293416 L30.1096396,11.9754833 L40.4178095,0.888581892 C45.0520077,2.34128702 48.7461033,3.88529295 51.5000962,5.52065131 Z" id="" fill="url(#linearGradient-40)"></path>
                            <path d="M24.6733755,38.5281531 C24.8365422,38.6736157 25.1923681,39.1100854 25.5584719,39.6513632 C26.0103325,40.3194308 26.4273377,41.0632651 26.7382847,41.7779535 C27.3740754,43.2392711 27.4304027,44.232591 27.1486901,44.5317571 L30.5239179,45.3400509 L27.9234549,36.4724607 L26.0042762,37.0352689 L24.6733755,38.5281531 Z" id="Shape-9" stroke="#D2DDF1" stroke-width="4" fill-opacity="0" fill="#000000"></path>
                            <path d="M29.8742322,35.9200112 C30.0374001,36.0654803 30.3932241,36.5019564 30.7593243,37.043236 C31.2111825,37.7113088 31.6281843,38.4551437 31.9391288,39.1698316 C32.574917,40.6311536 32.6312435,41.6244736 32.3495308,41.9236398 L35.7247611,42.7319424 L33.1243418,33.8643521 L31.2051606,34.4271517 L29.8742322,35.9200112 Z" id="Shape-9-copy" stroke="#D2DDF1" stroke-width="4" fill-opacity="0" fill="#000000"></path>
                            <path d="M35.0751005,33.8335421 C35.2382673,33.9790047 35.5940932,34.4154744 35.960197,34.9567522 C36.4120575,35.6248198 36.8290628,36.368654 37.1400097,37.0833425 C37.7758005,38.5446601 37.8321277,39.5379799 37.5504152,39.837146 L40.925643,40.6454399 L38.32518,31.7778496 L36.4060013,32.3406579 L35.0751005,33.8335421 Z" id="Shape-9-copy-2" stroke="#D2DDF1" stroke-width="4"></path>
                        </g>
                        <g id="leg" transform="translate(64.490657, 37.035265)">
                            <g id="">
                                <use fill="#353458" xlink:href="#path-44"></use>
                                <use fill-opacity="0.639999986" fill="url(#linearGradient-41)" xlink:href="#path-44"></use>
                                <use fill="url(#linearGradient-42)" xlink:href="#path-44"></use>
                                <use fill-opacity="0.589999974" fill="url(#linearGradient-43)" xlink:href="#path-44"></use>
                            </g>
                            <path d="M0.598728136,64.5474474 C2.5666314,73.7164432 12.093963,81.0802484 29.180723,86.6388629 C54.8108629,94.9767686 80.0499949,84.4208115 85.4079858,86.6388629 C76.7023837,83.8076974 54.6517488,77.4796017 36.8150894,67.0448574 C30.6167208,67.0514872 18.5446004,66.2189741 0.598728136,64.5474474 Z" id="" fill="url(#linearGradient-45)" style="mix-blend-mode: multiply;"></path>
                        </g>
                    </g>
                    <g id="face" transform="translate(100.896672, 12.518963)">
                        <mask id="mask-48" fill="white">
                            <use xlink:href="#path-47"></use>
                        </mask>
                        <use id="" fill="url(#linearGradient-46)" xlink:href="#path-47"></use>
                        <path d="M17.6493609,44.7774692 C19.7075056,47.2824853 23.237904,52.0360797 27.6423659,54.7150931 C31.7958893,57.2414732 39.1539564,57.3010828 43.5852854,57.3010828 C49.6722057,57.3010828 45.5786471,62.9660573 31.3046098,74.2960062 L17.6493609,71.5559964 C14.9833414,50.4587701 14.9833414,41.5325943 17.6493609,44.7774692 Z" id="Path-2" fill="url(#linearGradient-49)" mask="url(#mask-48)"></path>
                        <path d="M28.3281658,17.9387305 C28.3281658,16.0077306 30.716905,12.6542427 32.7407154,12.6542427" id="" stroke="#622222" stroke-width="3" fill-opacity="0" fill="#000000" mask="url(#mask-48)"></path>
                        <path d="M36.0196991,22.9180968 C36.8840081,22.6874986 37.1748781,21.4651705 36.6694269,20.1879155 C36.1639299,18.9105995 35.0534829,18.0621002 34.1892197,18.2926713 C33.3249108,18.5231746 33.0340407,19.7455366 33.5395377,21.0228526 C34.044989,22.3001347 35.1554359,23.148634 36.0196991,22.9180968 Z" id="" fill="#622222" mask="url(#mask-48)"></path>
                        <path d="M48.7723531,32.76947 C49.2308395,32.4222878 49.1821829,33.0861872 49.5174277,33.7235401 C49.8526288,34.360893 50.1970151,35.4693408 50.3448636,35.8972076 C48.4432682,37.3371137 44.5815692,36.6369781 41.9004846,35.6150302 C41.363514,35.4103514 40.8085225,34.7330755 41.143669,34.2651292 C41.4787718,33.7971516 42.0247638,33.9594224 42.595297,34.026474 C44.5865277,34.2603845 47.5874028,33.6667103 48.7723531,32.76947 Z" id="" fill="#622222" mask="url(#mask-48)"></path>
                    </g>
                    <g id="hand" transform="translate(217.395923, 36.513641)">
                        <path d="M12.4820366,36.5136288 C11.7939759,35.4287704 11.1526319,19.8863311 13.0021355,17.7351925 C14.8516781,15.5840816 19.6022861,12.9436357 20.2833387,13.5622159 C20.9644562,14.1807685 22.6400301,17.532077 21.3235366,18.2568181 C20.00703,18.9815591 17.4945859,21.5204334 17.682922,22.4297947 C17.8712191,23.3391836 18.2584101,26.0350045 19.2431538,27.1244245 C20.2279495,28.2138168 14.0894142,39.0478863 12.4820366,36.5136288 Z" id="finger" fill="#346CC7"></path>
                        <g id="pen">
                            <path d="M35.30528,5.75007956 C36.8050258,4.46992903 43.9862944,0.963466675 44.7514969,3.65203181 C45.2616362,5.44441239 42.9023573,7.76488247 37.6737123,10.6133388 C35.0949052,8.22457669 34.3054017,6.60348264 35.30528,5.75007956 Z" id="" fill="#FFFFFF"></path>
                            <path d="M5.60271317,18.7482922 L35.2639477,4.28450494 C37.1718913,3.35412223 39.4716759,3.97893218 40.6506109,5.74789344 C41.79594,7.46632085 41.3690004,9.7868457 39.6877685,10.9821771 L12.4091819,30.3770758 C9.38068713,32.5303343 5.18515593,31.8135971 3.03826093,28.776058 C2.92742126,28.6192862 2.82331981,28.4578056 2.72625513,28.2920473 C0.832768889,25.0593898 1.91063036,20.899304 5.13380889,19.0002228 C5.2867412,18.9100805 5.44317057,18.8260318 5.60271317,18.7482922 Z" id="" fill="#223762"></path>
                        </g>
                        <path d="M4.72126268,53.8143914 C8.34762743,49.275485 10.636935,46.3197709 11.5892222,44.9472492 C12.2603172,43.9799637 11.1815211,37.6273074 12.6062778,35.0166472 C14.0310715,32.4059219 15.0334305,31.5828653 16.0654043,30.0672884 C16.4019857,29.5730501 18.0442371,27.1152257 18.4946986,25.7012349 C19.6851592,21.9645201 20.0518724,20.1775686 20.3071794,18.059973 C20.6590113,15.1411638 28.4839108,9.18794061 29.4415523,7.09583937 C30.3991938,5.00373812 32.5729227,4.34434088 33.7324761,7.09583937 C34.8920665,9.84727265 27.0273976,17.0615205 27.0273976,20.8576352 C27.0273976,21.0858454 30.3857527,15.8476376 32.4751054,15.3248405 C34.3783136,15.3248405 34.144756,17.951997 34.9719746,21.5925374 C35.778736,25.1432934 40.3278841,29.4594666 40.3278841,34.0802027 C40.3278841,36.7601084 40.3349369,38.9300619 40.3278841,39.3443614 C40.2605678,43.2862046 25.9914358,54.4503156 22.8767191,58.9275401 C20.8001798,61.9123346 18.5297784,65.0068005 16.0654043,68.2109378 L4.72126268,53.8143914 Z" fill="url(#linearGradient-50)"></path>
                    </g>
                    <g id="top" transform="translate(60.329969, 76.157023)">
                        <path d="M12.9090921,150.143973 C10.9528149,158.67137 9.58995567,163.907105 8.82051453,165.851202 C7.66635281,168.767347 30.8540724,172.374779 56.1692686,172.135744 C77.9915806,171.929654 93.0305417,169.402174 97.2560969,166.397872 C93.2049265,162.742163 92.1831006,159.542497 91.641015,157.268521 C87.5948504,152.518822 61.3508458,150.143973 12.9090921,150.143973 Z" id="shirt-bottom" fill="url(#linearGradient-51)"></path>
                        <path d="M56.6390534,2.22376839 C61.7577413,3.520614 73.688287,5.43147509 76.1205844,5.38948649 C78.5529463,5.34749789 82.6194691,23.1003218 82.3648277,24.6753283 C82.1102186,26.2502535 58.2663784,17.6352396 56.6390534,15.5930963 C55.0117606,13.5508988 51.52043,0.926868531 56.6390534,2.22376839 Z" id="colar" fill="url(#linearGradient-52)"></path>
                        <g id="shirt" transform="translate(0.000000, 12.518963)">
                            <mask id="mask-56" fill="white">
                                <use xlink:href="#path-55"></use>
                            </mask>
                            <g id="">
                                <use fill="url(#linearGradient-53)" xlink:href="#path-55"></use>
                                <use fill="url(#linearGradient-54)" xlink:href="#path-55"></use>
                            </g>
                            <path d="M11.1818477,62.334002 L30.9451135,160.39921" id="Line" stroke="#FFFFFF" stroke-width="3" opacity="0.200000003" style="mix-blend-mode: overlay;" stroke-linecap="square" mask="url(#mask-56)"></path>
                            <path d="M28.8647697,44.5988048 L54.8690667,159.355963" id="Line-Copy" stroke="#FFFFFF" stroke-width="3" opacity="0.200000003" style="mix-blend-mode: overlay;" stroke-linecap="square" mask="url(#mask-56)"></path>
                            <path d="M46.5476917,18.5176324 L78.2729341,165.615445" id="Line-Copy-2" stroke="#FFFFFF" stroke-width="3" opacity="0.200000003" style="mix-blend-mode: overlay;" stroke-linecap="square" mask="url(#mask-56)"></path>
                            <path d="M11.1818477,82.155693 L116.759294,111.366606" id="Line-2" stroke="#FFFFFF" stroke-width="3" opacity="0.200000003" style="mix-blend-mode: overlay;" stroke-linecap="square" mask="url(#mask-56)"></path>
                            <path d="M8.58141802,111.366606 L114.158864,140.577519" id="Line-2-Copy" stroke="#FFFFFF" stroke-width="3" opacity="0.200000003" style="mix-blend-mode: overlay;" stroke-linecap="square" mask="url(#mask-56)"></path>
                            <path d="M8.58141802,53.9880268 L114.158864,83.1989399" id="Line-2-Copy-2" stroke="#FFFFFF" stroke-width="3" opacity="0.200000003" style="mix-blend-mode: overlay;" stroke-linecap="square" mask="url(#mask-56)"></path>
                            <path d="M8.58141802,16.952762 L114.158864,46.1636751" id="Line-2-Copy-3" stroke="#FFFFFF" stroke-width="3" opacity="0.200000003" style="mix-blend-mode: overlay;" stroke-linecap="square" mask="url(#mask-56)"></path>
                            <path d="M98.8855969,146.695586 C81.5493989,93.3838494 72.8812998,63.7906411 72.8812998,57.915961 C72.8812998,52.0412809 82.4982722,50.6273163 101.732217,53.6740674 L117.871418,146.695586 L98.8855969,146.695586 Z" id="Path" fill="url(#linearGradient-57)" mask="url(#mask-56)"></path>
                        </g>
                        <path d="M152.476146,21.8373515 C156.256972,18.6287632 161.559413,12.2220432 164.544925,8.4205694 C167.5304,4.6190956 184.054388,21.93622 180.837054,26.2798431 C177.61983,30.6235069 171.132542,38.6829585 167.979459,41.0338726 C164.82645,43.384746 148.695208,25.045899 152.476146,21.8373515 Z" id="shirt-sleeve" fill="url(#linearGradient-58)"></path>
                        <g id="sleeve" transform="translate(67.091086, 13.040586)">
                            <mask id="mask-62" fill="white">
                                <use xlink:href="#path-61"></use>
                            </mask>
                            <g id="">
                                <use fill="url(#linearGradient-59)" xlink:href="#path-61"></use>
                                <use fill="url(#linearGradient-60)" xlink:href="#path-61"></use>
                            </g>
                            <polyline id="Path-5" stroke="#FFFFFF" stroke-width="3" opacity="0.200000003" style="mix-blend-mode: overlay;" stroke-linecap="square" mask="url(#mask-62)" points="-4.6978731 36.5094376 63.8199929 60.4425163 101.295803 6.92816026"></polyline>
                            <path d="M11.7019337,8.60678688 L35.105801,73.8097178" id="Line-3" stroke="#FFFFFF" stroke-width="3" opacity="0.200000003" style="mix-blend-mode: overlay;" stroke-linecap="square" mask="url(#mask-62)"></path>
                            <path d="M28.3446838,8.60678688 L51.7485511,73.8097178" id="Line-3-Copy" stroke="#FFFFFF" stroke-width="3" opacity="0.200000003" style="mix-blend-mode: overlay;" stroke-linecap="square" mask="url(#mask-62)"></path>
                            <path d="M55.9092386,33.6447124 L80.3532778,97.282773" id="Line-4" stroke="#FFFFFF" stroke-width="3" opacity="0.200000003" style="mix-blend-mode: overlay;" stroke-linecap="square" mask="url(#mask-62)"></path>
                            <path d="M60.5900121,29.9933482 L95.955856,66.5069896" id="Line-5" stroke="#FFFFFF" stroke-width="3" opacity="0.200000003" style="mix-blend-mode: overlay;" stroke-linecap="square" mask="url(#mask-62)"></path>
                            <path d="M67.8712152,15.9095151 L111.038348,53.4664034" id="Line-6" stroke="#FFFFFF" stroke-width="3" opacity="0.200000003" style="mix-blend-mode: overlay;" stroke-linecap="square" mask="url(#mask-62)"></path>
                            <path d="M75.1524184,7.56353999 L122.480239,35.7312062" id="Line-7" stroke="#FFFFFF" stroke-width="3" opacity="0.200000003" style="mix-blend-mode: overlay;" stroke-linecap="square" mask="url(#mask-62)"></path>
                        </g>
                    </g>
                    <g id="hair" transform="translate(42.126961, 0.000000)">
                        <mask id="mask-65" fill="white">
                            <use xlink:href="#path-64"></use>
                        </mask>
                        <g id="">
                            <use fill="url(#radialGradient-63)" fill-rule="evenodd" xlink:href="#path-64"></use>
                            <use fill="black" fill-opacity="1" filter="url(#filter-66)" xlink:href="#path-64"></use>
                        </g>
                        <path d="M77.8955823,54.9999766 C77.8955823,61.7182574 65.1253544,146.104088 53.6670791,152.6933 C42.2088037,159.282512 89.0413289,158.982469 89.0413289,146.39575 C89.0413289,133.809031 77.8955823,48.2816958 77.8955823,54.9999766 Z" id="Path-3" fill="url(#linearGradient-67)" mask="url(#mask-65)"></path>
                    </g>
                </g>
                <g id="paint" transform="translate(487.000000, 331.000000)">
                    <path d="M64.6080596,95.478227 C99.9967744,95.478227 128.684903,89.2900957 128.684903,81.6566217 C128.684903,74.0231478 99.9967744,67.8350739 64.6080596,67.8350739 C29.2193447,67.8350739 0.531086277,74.0231478 0.531086277,81.6566217 C0.531086277,89.2900957 29.2193447,95.478227 64.6080596,95.478227 Z" id="" fill="url(#linearGradient-68)" opacity="0.763113839" style="mix-blend-mode: multiply;"></path>
                    <path d="M13.151857,81.2006776 L6.84069957,11.1538497 L134.994516,11.1538497 L128.706709,81.2006776 C128.689456,81.3045391 128.68777,81.4087325 128.67843,81.5134237 C128.136057,87.5580506 102.275632,92.4581264 70.9176729,92.4581264 C39.5598432,92.4581264 13.6994181,87.5580506 13.1567865,81.5134237 C13.1473167,81.4087325 13.14576,81.3045391 13.151857,81.2006776 Z" id="" fill="url(#linearGradient-69)"></path>
                    <g id="">
                        <use fill="url(#linearGradient-70)" xlink:href="#path-72"></use>
                        <use fill="url(#linearGradient-71)" xlink:href="#path-72"></use>
                    </g>
                    <path d="M70.9176729,22.4113503 C106.306388,22.4113503 134.994516,17.5112118 134.994516,11.466553 C134.994516,5.42189426 106.306388,0.52173287 70.9176729,0.52173287 C35.528958,0.52173287 6.84069957,5.42189426 6.84069957,11.466553 C6.84069957,17.5112118 35.528958,22.4113503 70.9176729,22.4113503 Z" id="" fill="url(#linearGradient-73)"></path>
                </g>
                <g id="clock" style="mix-blend-mode: soft-light;" transform="translate(34.000000, 32.000000)">
                    <mask id="mask-76" fill="white">
                        <use xlink:href="#path-75"></use>
                    </mask>
                    <use id="Ellipse-4" fill="url(#radialGradient-74)" opacity="0.800000012" style="mix-blend-mode: multiply;" xlink:href="#path-75"></use>
                    <path d="M38.0576547,34.1088095 L41.7191315,45.7795644 L46.7036432,42.7609663 L38.0576547,34.1088095 Z M36.8957748,32.9461006 L36.0178514,32.0675509 L36.8957748,34.1881147 L36.8957748,32.9461006 Z M36.8957748,30.4053813 L36.8957748,10.8211594 L31.0333397,11.7191938 L36.8957748,30.4053813 Z" id="Shape-8" stroke="#FFFFFF" stroke-width="6" mask="url(#mask-76)"></path>
                </g>
            </g>
        </g>
    </g>
</svg>