<?xml version="1.0" encoding="utf-8"?>
<!-- Generator: Adobe Illustrator 22.0.1, SVG Export Plug-In . SVG Version: 6.00 Build 0)  -->
<svg version="1.1" id="Layer_1" xmlns="http://www.w3.org/2000/svg" xmlns:xlink="http://www.w3.org/1999/xlink" x="0px" y="0px"
	 viewBox="0 0 800 243" style="enable-background:new 0 0 800 243;" xml:space="preserve">
<style type="text/css">
	.st0{fill:#FFFFFF;}
</style>
<g>
	<g>
		<path class="st0" d="M175.963,66.837c-11.077-11.077-29.466-16.767-54.662-16.913c-25.196,0.146-43.586,5.836-54.662,16.913
			C55.562,77.914,49.871,96.304,49.725,121.5c0.146,25.196,5.837,43.586,16.914,54.662c11.077,11.076,29.466,16.767,54.662,16.913
			c25.196-0.146,43.585-5.837,54.662-16.913c11.077-11.077,16.767-29.467,16.913-54.662C192.73,96.304,187.04,77.914,175.963,66.837
			z"/>
		<path class="st0" d="M193.729,190.639c-0.529,0.568-1.031,1.152-1.584,1.705c-18.537,18.537-45.595,23.487-70.845,23.617
			c-25.25-0.129-52.308-5.08-70.845-23.617c-0.553-0.553-1.055-1.137-1.584-1.705c-6.851,2.708-12.568,6.286-17.053,10.771
			c-2.01,2.01-3.833,4.272-5.483,6.765c1.276,1.466,2.598,2.904,3.992,4.298c23.803,23.803,58.55,30.161,90.974,30.327
			c32.424-0.166,67.171-6.524,90.974-30.327c1.394-1.394,2.716-2.832,3.992-4.298c-1.651-2.493-3.474-4.756-5.484-6.765
			C206.297,196.925,200.58,193.348,193.729,190.639z"/>
		<path class="st0" d="M212.274,30.526c-23.802-23.802-58.551-30.16-90.974-30.327C88.878,0.366,54.129,6.724,30.327,30.526
			C6.524,54.33,0.167,89.076,0,121.5c0.116,22.513,3.233,46.139,13.086,66.452c0.824-0.924,1.665-1.838,2.551-2.723
			c6.028-6.028,12.975-10.582,20.451-14.035c-6.918-15.346-9.162-32.913-9.249-49.693c0.13-25.249,5.08-52.308,23.617-70.845
			c18.536-18.536,45.596-23.487,70.845-23.617c25.249,0.13,52.309,5.081,70.845,23.617c18.536,18.537,23.487,45.595,23.617,70.845
			c-0.086,16.78-2.331,34.347-9.249,49.693c7.476,3.453,14.423,8.007,20.451,14.035c0.886,0.886,1.726,1.8,2.55,2.723
			c9.853-20.313,12.97-43.939,13.086-66.452C242.435,89.076,236.078,54.329,212.274,30.526z"/>
	</g>
	<g>
		<path class="st0" d="M314.177,78.188c5.163-1.473,11.873-2.876,20.136-4.204c8.258-1.328,17.404-1.991,27.435-1.991
			c9.439,0,17.332,1.293,23.676,3.872c6.339,2.583,11.394,6.195,15.156,10.841c3.761,4.647,6.416,10.254,7.965,16.816
			c1.549,6.565,2.323,13.756,2.323,21.573v67.98h-26.771v-63.777c0-6.195-0.409-11.468-1.217-15.819
			c-0.813-4.349-2.14-7.889-3.983-10.621c-1.847-2.727-4.353-4.718-7.523-5.974c-3.174-1.252-7.046-1.881-11.618-1.881
			c-3.393,0-6.933,0.221-10.62,0.664c-3.689,0.442-6.416,0.813-8.186,1.106v96.302h0c-14.787,0-26.774-11.987-26.774-26.774V78.188z
			"/>
		<path class="st0" d="M519.484,141.428c-1.756-3.843-4.217-7.151-7.316-9.834c-3.051-2.634-6.704-4.795-10.861-6.426
			c-4.019-1.574-8.355-2.927-12.89-4.022c-2.407-0.483-5.183-1.021-8.416-1.64c-3.041-0.577-5.93-1.454-8.594-2.608
			c-2.558-1.104-4.795-2.57-6.651-4.358c-1.588-1.527-2.359-3.511-2.359-6.067c0-3.119,1.329-5.335,4.183-6.973
			c3.218-1.85,7.111-2.787,11.574-2.787c4.765,0,8.814,0.938,12.033,2.787c3.326,1.911,6.158,4.31,8.414,7.129l1.498,1.871
			l1.911-1.447l16.143-12.222l1.788-1.354l-1.181-1.906c-4.259-6.878-10.081-11.864-17.303-14.82
			c-7.032-2.876-14.485-4.334-22.15-4.334c-5.278,0-10.582,0.728-15.762,2.164c-5.245,1.452-10.002,3.669-14.14,6.589
			c-4.199,2.964-7.625,6.764-10.181,11.294c-2.583,4.585-3.892,9.996-3.892,16.085c0,5.603,1.026,10.409,3.047,14.284
			c2.008,3.849,4.729,7.077,8.088,9.595c3.26,2.448,7.056,4.431,11.279,5.892c4.075,1.411,8.42,2.675,12.914,3.756
			c2.351,0.472,5.003,1.049,7.977,1.736c2.844,0.656,5.575,1.541,8.117,2.631c2.369,1.016,4.426,2.42,6.116,4.173
			c1.477,1.537,2.196,3.468,2.196,5.901c0,1.779-0.485,3.3-1.48,4.649c-1.107,1.496-2.511,2.705-4.288,3.692
			c-1.846,1.025-4.01,1.79-6.437,2.274c-2.511,0.505-5.024,0.76-7.473,0.76c-5.501,0-10.18-1.191-13.908-3.542
			c-3.985-2.508-7.642-5.418-10.87-8.651l-1.581-1.583l-1.727,1.422l-15.682,12.915l-1.792,1.476l1.367,1.876
			c5.627,7.721,12.154,13.122,19.4,16.053c7.102,2.874,15.443,4.331,24.792,4.331c5.535,0,11.114-0.642,16.583-1.909
			c5.567-1.29,10.612-3.425,14.995-6.345c4.437-2.96,8.102-6.833,10.895-11.512c2.832-4.749,4.268-10.488,4.268-17.059
			C522.127,149.962,521.239,145.273,519.484,141.428z"/>
		<path class="st0" d="M602.63,71.531h-14.872c-25.079,0-45.409,20.33-45.409,45.409v30.727c0,25.079,20.33,45.409,45.409,45.409
			h14.872c25.079,0,45.409-20.33,45.409-45.409V116.94C648.039,91.861,627.71,71.531,602.63,71.531z M620.301,146.694
			c0,11.525-9.342,20.867-20.867,20.867h-8.48c-11.526,0-20.867-9.342-20.867-20.867v-28.782c0-11.525,9.342-20.867,20.867-20.867
			h8.48c11.525,0,20.867,9.342,20.867,20.867V146.694z"/>
		<path class="st0" d="M723.659,82.601h-25.627V69.105c0-9.206,11.159-14.542,26.037-14.85V27.075
			c-40.531,0-53.03,18.135-53.03,40.482v15.045v21.461v89.013h26.993v-86.55h25.627V82.601z"/>
		<path class="st0" d="M799.59,106.25h-25.627v44.795c0,9.206,11.159,14.542,26.037,14.85v27.181
			c-40.531,0-53.03-18.135-53.03-40.482v-17.77V110.9V27.075h0c14.908,0,26.992,12.085,26.992,26.993v28.259h25.627V106.25z"/>
	</g>
</g>
</svg>
